<svg width="20" height="24" fill="none" xmlns="http://www.w3.org/2000/svg"><path d="M6.607 13.252H4.821a.546.546 0 0 1-.535-.552v-1.84c0-.304.24-.553.535-.553h1.786c.295 0 .536.249.536.553v1.84a.546.546 0 0 1-.536.552Zm4.822-.552v-1.84a.546.546 0 0 0-.536-.553H9.107a.546.546 0 0 0-.536.553v1.84c0 .304.242.552.536.552h1.786a.546.546 0 0 0 .536-.552Zm4.285 0v-1.84a.546.546 0 0 0-.535-.553h-1.786a.546.546 0 0 0-.536.553v1.84c0 .304.241.552.536.552h1.786a.546.546 0 0 0 .535-.552Zm-4.285 4.418v-1.841a.546.546 0 0 0-.536-.552H9.107a.546.546 0 0 0-.536.552v1.84c0 .304.242.553.536.553h1.786a.546.546 0 0 0 .536-.552Zm-4.286 0v-1.841a.546.546 0 0 0-.536-.552H4.821a.546.546 0 0 0-.535.552v1.84c0 .304.24.553.535.553h1.786a.546.546 0 0 0 .536-.552Zm8.571 0v-1.841a.546.546 0 0 0-.535-.552h-1.786a.546.546 0 0 0-.536.552v1.84c0 .304.241.553.536.553h1.786a.546.546 0 0 0 .535-.552ZM20 5.154V21.35c0 1.22-.96 2.209-2.143 2.209H2.143C.96 23.56 0 22.57 0 21.35V5.154c0-1.22.96-2.209 2.143-2.209h2.143V.552c0-.304.24-.552.535-.552h1.786c.295 0 .536.248.536.552v2.393h5.714V.552c0-.304.241-.552.536-.552h1.786c.294 0 .535.248.535.552v2.393h2.143c1.183 0 2.143.99 2.143 2.209Zm-2.143 15.921V7.362H2.143v13.713c0 .152.12.276.268.276h15.178a.273.273 0 0 0 .268-.276Z" fill="#000"/></svg>