<svg width="20" height="21" fill="none" xmlns="http://www.w3.org/2000/svg"><path d="M10 0C4.476 0 0 4.613 0 10.307s4.476 10.308 10 10.308S20 16 20 10.307 15.524 0 10 0Zm0 18.62c-4.456 0-8.065-3.72-8.065-8.313 0-4.592 3.61-8.312 8.065-8.312 4.456 0 8.064 3.72 8.064 8.312 0 4.593-3.608 8.313-8.064 8.313Zm2.492-4.34-3.423-2.564a.507.507 0 0 1-.198-.403V4.49c0-.275.218-.499.484-.499h1.29c.266 0 .484.224.484.499v5.89l2.694 2.019a.508.508 0 0 1 .104.698l-.758 1.077a.478.478 0 0 1-.677.108Z" fill="#000"/></svg>