<svg version="1.1" id="Icons" xmlns="http://www.w3.org/2000/svg" viewBox="0 0 32 32" xml:space="preserve" fill="#000"><g id="SVGRepo_iconCarrier"><style>.st1{fill:#3a559f}.st2{fill:#f4f4f4}.st3{fill:#ff0084}.st4{fill:#0063db}.st5{fill:#00aced}.st6{fill:#ffec06}.st7{fill:red}.st9{fill:#08f}.st10{fill:#314358}.st11{fill:#ee6996}.st12{fill:#01aef3}.st13{fill:#fffeff}.st14{fill:#f06a35}.st15{fill:#00adef}.st16{fill:#1769ff}.st17{fill:#1ab7ea}.st18{fill:#6001d1}.st19{fill:#e41214}.st20{fill:#05ce78}.st21{fill:#7b519c}.st22{fill:#ff4500}.st23{fill:#00f076}.st24{fill:#ffc900}.st25{fill:#00d6ff}.st26{fill:#ff3a44}.st27{fill:#ff6a36}.st28{fill:#0061fe}.st29{fill:#f7981c}.st30{fill:#ee1b22}.st31{fill:#ef3561}.st32{fill:none;stroke:#fff;stroke-width:2;stroke-miterlimit:10}.st33{fill:#0097d3}.st34{fill:#01308a}.st35{fill:#019cde}.st36{fill:#ffd049}.st37{fill:#16a05d}.st38{fill:#4486f4}.st39{fill:none}.st40{fill:#34a853}.st41{fill:#4285f4}.st42{fill:#fbbc05}.st43{fill:#ea4335}</style><path d="M17 0C8.7 0 2 6.7 2 15c0 3.4 1.1 6.6 3.2 9.2l-2.1 6.4c-.1.4 0 .8.3 1.1.1.2.4.3.6.3.1 0 .3 0 .4-.1l6.9-3.1c1.8.8 3.7 1.2 5.7 1.2 8.3 0 15-6.7 15-15S25.3 0 17 0z" style="fill:#25d366"/><path d="M25.7 20.5c-.4 1.2-1.9 2.2-3.2 2.4-.3.1-.6.1-1 .1-.8 0-2-.2-4.1-1.1-2.4-1-4.8-3.1-6.7-5.8V16c-.6-.9-1.7-2.6-1.7-4.4 0-2.2 1.1-3.3 1.5-3.8.5-.5 1.2-.8 2-.8h.5c.7 0 1.2.2 1.7 1.2l.4.8c.3.8.7 1.7.8 1.8.3.6.3 1.1 0 1.6-.1.3-.3.5-.5.7-.1.2-.2.3-.3.3l-.2.2c.3.5.9 1.4 1.7 2.1 1.2 1.1 2.1 1.4 2.6 1.6.2-.2.4-.6.7-.9l.1-.2c.5-.7 1.3-.9 2.1-.6.4.2 2.6 1.2 2.6 1.2l.2.1c.3.2.7.3.9.7.4.9.1 2.2-.1 2.9z" style="fill:#fff"/></g></svg>